<svg width="65" height="65" viewBox="0 0 65 65" fill="none" xmlns="http://www.w3.org/2000/svg">
	<g clip-path="url(#clip0_72_71)">
		<path d="M64.5 48.5V41.3889H0.5V48.5C0.5 50.386 1.2492 52.1947 2.5828 53.5283C3.91639 54.8619 5.72513 55.6111 7.61111 55.6111H57.3889C59.2749 55.6111 61.0836 54.8619 62.4172 53.5283C63.7508 52.1947 64.5 50.386 64.5 48.5Z" fill="#EE2024" />
		<path d="M64.5 41.3889H0.5V16.5C0.5 14.614 1.2492 12.8053 2.5828 11.4717C3.91639 10.1381 5.72513 9.38889 7.61111 9.38889H57.3889C59.2749 9.38889 61.0836 10.1381 62.4172 11.4717C63.7508 12.8053 64.5 14.614 64.5 16.5V41.3889Z" fill="#EEEEEE" />
		<path d="M0.5 23.6111H64.5V41.3889H0.5V23.6111Z" fill="#0A4EA2" />
		<path d="M21.5434 45.1044C19.5363 43.956 15.0758 41.0547 13.4456 37.1258C11.8012 33.1667 12.1674 27.4849 12.5905 20.9053L12.6972 19.2413H33.9647L34.0732 20.9053C34.4963 27.4831 34.8625 33.1631 33.2181 37.124C31.5861 41.0547 27.1274 43.9578 25.1185 45.1044L23.3336 46.1213L21.5434 45.1044Z" fill="white" />
		<path d="M32.2972 21.0191H14.363C13.9398 27.6093 13.6127 32.8947 15.0865 36.4431C16.9016 40.8164 23.115 43.9453 23.3194 44.0449V44.0555L23.3283 44.0502L23.3372 44.0555V44.0449C23.5416 43.9435 29.755 40.8164 31.5718 36.4431C33.0474 32.8947 32.7221 27.6075 32.2972 21.0191Z" fill="#EE2024" />
		<path d="M28.7045 29.1382C28.7045 29.1382 26.2138 29.3747 24.0254 29.4316C23.9896 28.6699 23.9914 27.9069 24.0307 27.1453C25.7605 27.252 26.9552 27.5827 26.9552 27.5827C27.3943 27.5827 27.7498 27.2271 27.7498 26.788V25.7107C27.7498 25.2716 27.3943 24.916 26.9552 24.916C26.9552 24.916 25.6414 25.14 24.1676 25.2342C24.2938 23.844 24.4449 22.6831 24.4449 22.6831C24.4449 22.244 24.0894 21.8884 23.6503 21.8884H22.5747C22.1356 21.8884 21.7801 22.244 21.7801 22.6831C21.7801 22.6831 21.9436 23.8671 22.0823 25.2484C21.1384 25.1937 20.1987 25.0827 19.2681 24.916C18.8289 24.916 18.4734 25.2716 18.4734 25.7107V26.788C18.4734 27.2271 18.8289 27.5827 19.2681 27.5827C19.2681 27.5827 20.4041 27.2164 22.2369 27.1293C22.2618 27.5382 22.2796 27.9347 22.2796 28.2778C22.2796 28.564 22.2689 28.9676 22.2512 29.4316C20.0432 29.3729 17.4636 29.14 17.4636 29.14C17.0245 29.14 16.6689 29.4956 16.6689 29.9347V31.012C16.6689 31.4511 17.0245 31.8067 17.4636 31.8067C17.4636 31.8067 19.8085 31.6147 22.1481 31.5791C22.0005 34.3009 21.7801 37.4849 21.7801 37.4849C21.7801 37.924 22.1356 38.2796 22.5747 38.2796H23.6503C24.0894 38.2796 24.4449 37.924 24.4449 37.4849C24.4449 37.4849 24.2476 34.3329 24.1161 31.588C26.3774 31.6413 28.7045 31.8067 28.7045 31.8067C29.1436 31.8067 29.4992 31.4511 29.4992 31.012V29.9347C29.4992 29.4956 29.1436 29.1382 28.7045 29.1382Z" fill="white" />
		<path d="M30.8627 37.7711C29.9596 35.8405 27.4761 35.2947 26.2974 37.6538C25.5187 34.82 23.3089 34.82 23.3089 34.82C23.3089 34.82 21.0974 34.82 20.3205 37.6538C19.1507 35.3142 16.6938 35.8333 15.7729 37.7267C18.1089 41.4138 23.1383 43.956 23.3232 44.0467V44.0556L23.3321 44.0502L23.3409 44.0556V44.0449C23.5241 43.9542 28.5143 41.4333 30.8627 37.7711Z" fill="#0A4EA2" />
	</g>
	<defs>
		<clipPath id="clip0_72_71">
			<rect width="64" height="64" fill="white" transform="translate(0.5 0.5)" />
		</clipPath>
	</defs>
</svg>
