<?xml version="1.0" encoding="iso-8859-1"?>
<!-- Uploaded to: SVG Repo, www.svgrepo.com, Generator: SVG Repo Mixer Tools -->
<svg version="1.1" id="Layer_1" xmlns="http://www.w3.org/2000/svg" xmlns:xlink="http://www.w3.org/1999/xlink" viewBox="0 0 512 512" xml:space="preserve">
	<polygon style="fill:#659C2F;" points="307.307,127.466 256,24.852 204.693,127.466 59.324,418.205 452.676,418.205 " />
	<polygon style="fill:#CED7D9;" points="238.898,127.466 256,144.568 273.102,127.466 290.205,144.568 307.307,127.466 256,24.852 
	204.693,127.466 221.795,144.568 " />
	<polygon style="fill:#94C54B;" points="367.165,178.772 486.881,418.205 247.449,418.205 " />
	<polygon style="fill:#ABD46E;" points="110.63,247.182 25.119,418.205 196.142,418.205 " />
	<g>
		<polygon style="fill:#CED7D9;" points="318.709,275.686 332.96,289.937 350.063,272.835 367.165,289.937 384.267,272.835 
		401.37,289.937 415.621,275.686 367.165,178.772 	" />
		<polygon style="fill:#CED7D9;" points="65.024,338.394 76.426,349.795 93.528,332.693 110.63,349.795 127.733,332.693 
		144.835,349.795 156.237,338.394 110.63,247.182 	" />
	</g>
	<rect x="8.017" y="418.205" style="fill:#8B6728;" width="495.967" height="85.511" />
	<g>
		<path style="fill:#7A5411;" d="M418.472,443.858h-34.205c-4.722,0-8.551,3.829-8.551,8.551c0,4.722,3.829,8.551,8.551,8.551h34.205
		c4.722,0,8.551-3.829,8.551-8.551C427.023,447.687,423.194,443.858,418.472,443.858z" />
		<path style="fill:#7A5411;" d="M444.125,460.96h-34.205c-4.722,0-8.551,3.829-8.551,8.551c0,4.722,3.829,8.551,8.551,8.551h34.205
		c4.722,0,8.551-3.829,8.551-8.551C452.676,464.789,448.848,460.96,444.125,460.96z" />
		<path style="fill:#7A5411;" d="M264.551,443.858h-34.205c-4.722,0-8.551,3.829-8.551,8.551c0,4.722,3.829,8.551,8.551,8.551h34.205
		c4.722,0,8.551-3.829,8.551-8.551C273.102,447.687,269.274,443.858,264.551,443.858z" />
		<path style="fill:#7A5411;" d="M290.205,460.96H256c-4.722,0-8.551,3.829-8.551,8.551c0,4.722,3.829,8.551,8.551,8.551h34.205
		c4.722,0,8.551-3.829,8.551-8.551C298.756,464.789,294.927,460.96,290.205,460.96z" />
		<path style="fill:#7A5411;" d="M84.977,443.858H50.772c-4.722,0-8.551,3.829-8.551,8.551c0,4.722,3.829,8.551,8.551,8.551h34.205
		c4.722,0,8.551-3.829,8.551-8.551C93.528,447.687,89.699,443.858,84.977,443.858z" />
		<path style="fill:#7A5411;" d="M110.63,460.96H76.426c-4.722,0-8.551,3.829-8.551,8.551c0,4.722,3.829,8.551,8.551,8.551h34.205
		c4.722,0,8.551-3.829,8.551-8.551C119.182,464.789,115.353,460.96,110.63,460.96z" />
	</g>
	<path style="fill:#CED7D9;" d="M469.779,50.505c-3.956,0-7.701,0.897-11.047,2.496c1.599-3.346,2.496-7.091,2.496-11.047
	c0-14.168-11.485-25.653-25.653-25.653s-25.653,11.485-25.653,25.653c0,3.956,0.897,7.701,2.496,11.047
	c-3.346-1.599-7.091-2.496-11.047-2.496c-14.168,0-25.653,11.485-25.653,25.653s11.485,25.653,25.653,25.653h68.409
	c14.168,0,25.653-11.485,25.653-25.653S483.947,50.505,469.779,50.505z" />
	<path style="fill:#B6C4C6;" d="M478.33,84.71h-68.409c-14.168,0-25.653-11.485-25.653-25.653c0-0.705,0.036-1.402,0.092-2.094
	c-5.3,4.7-8.643,11.556-8.643,19.196c0,14.168,11.485,25.653,25.653,25.653h68.409c13.463,0,24.495-10.373,25.562-23.559
	C490.812,82.267,484.858,84.71,478.33,84.71z" />
	<path style="fill:#CED7D9;" d="M110.63,127.466c-3.956,0-7.701,0.897-11.047,2.496c1.599-3.346,2.496-7.091,2.496-11.047
	c0-14.168-11.485-25.653-25.653-25.653s-25.653,11.485-25.653,25.653c0,3.956,0.897,7.701,2.496,11.047
	c-3.346-1.599-7.091-2.496-11.047-2.496c-14.168,0-25.653,11.485-25.653,25.653c0,14.168,11.485,25.653,25.653,25.653h68.409
	c14.168,0,25.653-11.485,25.653-25.653C136.284,138.951,124.799,127.466,110.63,127.466z" />
	<path style="fill:#B6C4C6;" d="M119.182,161.67H50.772c-14.168,0-25.653-11.485-25.653-25.653c0-0.705,0.036-1.402,0.092-2.094
	c-5.3,4.7-8.643,11.556-8.643,19.196c0,14.168,11.485,25.653,25.653,25.653h68.409c13.463,0,24.495-10.373,25.562-23.559
	C131.664,159.228,125.709,161.67,119.182,161.67z" />
	<path d="M503.983,410.188h-12.148l-41.897-83.794c-1.954-3.909-6.848-5.539-10.756-3.585c-3.907,1.953-5.538,6.848-3.585,10.755
	l38.312,76.624h-213.49l60.484-120.969l6.387,6.387c3.088,3.087,8.251,3.087,11.338,0l11.433-11.434l11.433,11.434
	c3.132,3.131,8.207,3.131,11.338,0l11.433-11.434l11.433,11.434c3.089,3.088,8.249,3.088,11.338,0l6.388-6.387l11.06,22.119
	c1.98,3.96,6.794,5.567,10.756,3.585c3.959-1.98,5.565-6.795,3.585-10.755l-64.491-128.98c-2.897-5.793-11.444-5.793-14.34,0
	l-9.932,19.863l-35.644-71.288c-0.006-0.012-0.012-0.024-0.018-0.035L263.167,21.267c-2.897-5.793-11.444-5.793-14.34,0
	l-51.228,102.457c-0.009,0.017-0.017,0.034-0.026,0.051l-69.841,139.686l-9.932-19.864c-2.897-5.793-11.444-5.793-14.34,0
	L20.165,410.188H8.017c-4.428,0-8.017,3.589-8.017,8.017c0,4.427,3.588,8.017,8.017,8.017h478.848c0.007,0,0.015,0.001,0.022,0.001
	c0.01,0,0.018-0.001,0.028-0.001h17.068c4.428,0,8.017-3.589,8.017-8.017C512,413.777,508.412,410.188,503.983,410.188z
	 M367.165,196.699l38.702,77.404l-4.498,4.498l-11.433-11.434c-3.132-3.131-8.207-3.131-11.338,0l-11.434,11.434l-11.433-11.434
	c-3.132-3.131-8.207-3.131-11.338,0L332.96,278.6l-4.498-4.498L367.165,196.699z M256,42.778l41.553,83.104l-7.349,7.349
	l-11.433-11.434c-3.132-3.131-8.207-3.131-11.338,0L256,133.231l-11.433-11.434c-3.132-3.131-8.207-3.131-11.338,0l-11.434,11.434
	l-7.348-7.349L256,42.778z M206.889,140.999l9.237,9.237c3.132,3.131,8.207,3.131,11.338,0l11.433-11.434l11.433,11.434
	c3.132,3.131,8.207,3.131,11.338,0l11.433-11.434l11.433,11.434c3.089,3.088,8.249,3.088,11.338,0l9.237-9.237l35.808,71.616
	c0.059,0.118,0.128,0.226,0.191,0.339l-98.616,197.233h-41.398l-64.401-128.802L206.889,140.999z M110.63,265.108l35.852,71.704
	l-1.647,1.647l-11.433-11.434c-3.132-3.131-8.207-3.131-11.338,0l-11.434,11.434l-11.433-11.434c-3.132-3.131-8.207-3.131-11.338,0
	l-11.434,11.433l-1.647-1.647L110.63,265.108z M67.221,351.928l3.537,3.537c3.088,3.087,8.251,3.087,11.338,0l11.433-11.435
	l11.433,11.434c3.132,3.131,8.207,3.131,11.338,0l11.433-11.434l11.433,11.434c3.089,3.088,8.249,3.088,11.338,0l3.537-3.537
	l29.131,58.26H38.09L67.221,351.928z" />
	<path d="M401.37,109.829h68.409c18.566,0,33.67-15.105,33.67-33.67s-15.105-33.67-33.67-33.67c-0.18,0-0.359,0.001-0.539,0.004
	c0.003-0.18,0.004-0.358,0.004-0.539c0-18.566-15.105-33.67-33.67-33.67c-18.566,0-33.67,15.105-33.67,33.67
	c0,0.18,0.001,0.359,0.004,0.539c-0.18-0.002-0.359-0.004-0.539-0.004c-18.566,0-33.67,15.105-33.67,33.67
	S382.804,109.829,401.37,109.829z M401.37,58.522c2.659,0,5.213,0.576,7.59,1.712c3.065,1.465,6.722,0.839,9.126-1.564
	c2.403-2.403,3.029-6.06,1.564-9.126c-1.136-2.377-1.712-4.931-1.712-7.59c0-9.725,7.912-17.637,17.637-17.637
	s17.637,7.912,17.637,17.637c0,2.659-0.576,5.213-1.712,7.59c-1.465,3.066-0.839,6.723,1.564,9.126
	c2.404,2.404,6.062,3.029,9.126,1.564c2.377-1.136,4.93-1.712,7.59-1.712c9.725,0,17.637,7.912,17.637,17.637
	s-7.912,17.637-17.637,17.637H401.37c-9.725,0-17.637-7.912-17.637-17.637S391.645,58.522,401.37,58.522z" />
	<path d="M42.221,186.789h68.409c18.566,0,33.67-15.105,33.67-33.67c0.001-18.745-15.412-33.925-34.209-33.666
	c0.003-0.18,0.004-0.358,0.004-0.539c0-18.566-15.105-33.67-33.67-33.67s-33.67,15.105-33.67,33.67c0,0.18,0.001,0.359,0.004,0.539
	c-0.18-0.002-0.359-0.004-0.539-0.004c-18.566,0-33.67,15.105-33.67,33.67S23.656,186.789,42.221,186.789z M42.221,135.482
	c2.659,0,5.213,0.576,7.59,1.712c3.065,1.467,6.721,0.839,9.126-1.564c2.403-2.403,3.029-6.06,1.564-9.126
	c-1.136-2.377-1.712-4.931-1.712-7.59c0-9.725,7.912-17.637,17.637-17.637s17.637,7.912,17.637,17.637
	c0,2.659-0.576,5.213-1.712,7.59c-1.45,3.034-0.813,6.75,1.564,9.126c2.376,2.375,6.093,3.015,9.126,1.564
	c2.377-1.136,4.93-1.712,7.59-1.712c9.725,0,17.637,7.912,17.637,17.637c0,9.725-7.912,17.637-17.637,17.637H42.221
	c-9.725,0-17.637-7.912-17.637-17.637C24.585,143.394,32.497,135.482,42.221,135.482z" />
</svg>
