<svg width="30" height="30" viewBox="0 0 30 30" fill="none" xmlns="http://www.w3.org/2000/svg">
	<g clip-path="url(#clip0_9_207)">
		<path d="M27.7399 0.349121H3.06376C1.91516 0.349121 0.984131 1.28015 0.984131 2.42875V27.1049C0.984131 28.2535 1.91516 29.1845 3.06376 29.1845H16.3874V18.0333H12.6422V13.6686H16.3874V10.4564C16.3874 6.73144 18.6615 4.70395 21.9843 4.70395C23.5758 4.70395 24.9435 4.82253 25.3421 4.87555V8.76883H23.0509C21.243 8.76883 20.8929 9.62792 20.8929 10.8887V13.6686H25.2154L24.6522 18.0333H20.8929V29.1845H27.7399C28.8885 29.1845 29.8195 28.2535 29.8195 27.1049V2.42875C29.8195 1.28015 28.8885 0.349121 27.7399 0.349121V0.349121Z" fill="#808080" />
	</g>
	<defs>
		<clipPath id="clip0_9_207">
			<rect width="28.8354" height="28.8354" fill="white" transform="translate(0.984131 0.349121)" />
		</clipPath>
	</defs>
</svg>
