<svg width="30" height="30" viewBox="0 0 30 30" fill="none" xmlns="http://www.w3.org/2000/svg">
	<path d="M28.5969 1.43813C27.8709 0.712016 27.001 0.349121 25.9876 0.349121H4.54855C3.53476 0.349121 2.6651 0.712148 1.93898 1.43813C1.21299 2.16392 0.850098 3.03372 0.850098 4.04731V25.4861C0.850098 26.4996 1.21293 27.3696 1.93898 28.0954C2.6651 28.8213 3.53495 29.1845 4.54855 29.1845H25.9873C27.0006 29.1845 27.8707 28.8213 28.5967 28.0954C29.3228 27.3696 29.6854 26.4996 29.6854 25.4861V4.04731C29.6853 3.03352 29.3228 2.16419 28.5969 1.43813ZM11.2037 10.7399C12.3363 9.64493 13.6974 9.0972 15.2869 9.0972C16.8886 9.0972 18.2558 9.64493 19.3886 10.7399C20.5214 11.835 21.0875 13.1586 21.0875 14.7105C21.0875 16.2621 20.5214 17.5858 19.3886 18.6806C18.2558 19.776 16.8891 20.3237 15.2869 20.3237C13.6975 20.3237 12.3365 19.7755 11.2037 18.6806C10.0709 17.5857 9.50461 16.2621 9.50461 14.7105C9.50461 13.1586 10.0709 11.8351 11.2037 10.7399ZM26.4194 24.7167C26.4194 25.0419 26.3064 25.314 26.0813 25.5331C25.8556 25.7521 25.5869 25.8616 25.2737 25.8616H5.20569C4.88034 25.8616 4.60792 25.7521 4.3891 25.5331C4.16994 25.3144 4.06046 25.0419 4.06046 24.7167V12.5514H6.70738C6.45718 13.34 6.33205 14.1598 6.33205 15.0107C6.33205 17.4142 7.20803 19.4632 8.96017 21.1594C10.7125 22.8549 12.8213 23.7031 15.2868 23.7031C16.9138 23.7031 18.4156 23.3149 19.7927 22.539C21.1694 21.7627 22.2575 20.7085 23.0591 19.3755C23.8602 18.0425 24.2607 16.5875 24.2607 15.0108C24.2607 14.1599 24.1351 13.3402 23.8849 12.5514H26.4195V24.7168H26.4194V24.7167ZM26.4194 7.95196C26.4194 8.31492 26.2942 8.6216 26.0435 8.87186C25.7933 9.12232 25.4868 9.24738 25.1237 9.24738H21.8573C21.4945 9.24738 21.1876 9.12225 20.9374 8.87186C20.6871 8.6216 20.5621 8.31492 20.5621 7.95196V4.8547C20.5621 4.50423 20.6871 4.20078 20.9374 3.94414C21.1877 3.68764 21.4946 3.55922 21.8573 3.55922H25.1237C25.4868 3.55922 25.7934 3.68757 26.0435 3.94414C26.2942 4.20078 26.4194 4.50423 26.4194 4.8547V7.95196Z" fill="#808080" />
</svg>
