<svg width="30" height="30" viewBox="0 0 30 30" fill="none" xmlns="http://www.w3.org/2000/svg">
	<g clip-path="url(#clip0_9_210)">
		<path d="M28.1887 6.76496C27.4066 5.37365 26.5577 5.11774 24.8294 5.02042C23.1029 4.90327 18.7614 4.85461 15.0002 4.85461C11.2317 4.85461 6.8884 4.90327 5.16368 5.01862C3.43897 5.11774 2.58832 5.37185 1.79895 6.76496C0.993366 8.15446 0.578857 10.5478 0.578857 14.7614C0.578857 14.765 0.578857 14.7668 0.578857 14.7668C0.578857 14.7704 0.578857 14.7722 0.578857 14.7722V14.7758C0.578857 18.9713 0.993366 21.3827 1.79895 22.7578C2.58832 24.1491 3.43717 24.4014 5.16188 24.5185C6.8884 24.6195 11.2317 24.6789 15.0002 24.6789C18.7614 24.6789 23.1029 24.6195 24.8312 24.5203C26.5595 24.4032 27.4084 24.1509 28.1905 22.7596C29.0033 21.3845 29.4142 18.9731 29.4142 14.7776C29.4142 14.7776 29.4142 14.7722 29.4142 14.7686C29.4142 14.7686 29.4142 14.765 29.4142 14.7632C29.4142 10.5478 29.0033 8.15446 28.1887 6.76496ZM11.3921 20.1734V9.36014L20.4032 14.7668L11.3921 20.1734Z" fill="#808080" />
	</g>
	<defs>
		<clipPath id="clip0_9_210">
			<rect width="28.8354" height="28.8354" fill="white" transform="translate(0.578857 0.349121)" />
		</clipPath>
	</defs>
</svg>
